#!OML:ASF F:\VICON\USERDATA\INSTALL\rory3\rory3.ASF
:FULLY-SPECIFIED
:DEGREES
2152
root 17.7873 17.7183 -9.1216 357.735 13.6687 -1076.76
lowerback 11.0285 1.1162 -0.967311
upperback 0.116716 1.42674 0.996029
thorax -6.11956 0.745439 1.36027
lowerneck -19.2661 -7.05826 -12.8825
upperneck 33.0033 -9.59959 10.3609
head 16.2515 -4.21457 4.83507
rclavicle -5.09386e-015 -1.66979e-014
rhumerus -33.1043 -6.3315 -81.4959
rradius 36.5779
rwrist 1.54579
rhand -17.7015 6.82811
rfingers 7.12502
rthumb 8.55841 -22.9784
lclavicle -5.09386e-015 -1.66979e-014
lhumerus -38.0591 11.0838 81.2453
lradius 21.4555
lwrist -14.2611
lhand -15.8334 25.2568
lfingers 7.12502
lthumb 10.3609 54.9816
rfemur -12.2159 16.7924 14.9841
rtibia 34.9007
rfoot -12.6148 40.1591
rtoes 21.6875
lfemur -7.96579 -17.7662 -17.9634
ltibia 23.757
lfoot -9.78632 -24.3603
ltoes 3.35266
2153
root 17.8438 17.7309 -9.14399 358.039 13.2824 -1076.69
lowerback 10.9821 0.878305 -1.18473
upperback 0.0164304 1.08517 1.03077
thorax -6.19304 0.585911 1.57503
lowerneck -19.2277 -7.11846 -12.9026
upperneck 32.794 -9.66971 10.3325
head 16.1491 -4.25373 4.79834
rclavicle -4.06018e-014 -7.95139e-016
rhumerus -33.2455 -7.14127 -80.7612
rradius 36.1457
rwrist 1.32233
rhand -17.9022 6.54824
rfingers 7.12502
rthumb 8.36474 -23.2661
lclavicle -4.06018e-014 -7.95139e-016
lhumerus -37.7083 10.2319 81.5956
lradius 21.4503
lwrist -14.088
lhand -15.1842 26.1998
lfingers 7.12502
lthumb 10.987 55.8922
rfemur -12.488 16.9084 14.6556
rtibia 34.7172
rfoot -13.6721 39.8112
rtoes 19.4903
lfemur -8.32728 -17.7559 -18.2722
ltibia 23.938
lfoot -10.3127 -23.4847
ltoes 1.4345
2154
root 17.9131 17.7429 -9.16494 358.35 12.8039 -1076.51
lowerback 10.9413 0.673933 -1.33965
upperback -0.0411735 0.791951 1.00244
thorax -6.22162 0.446891 1.68052
lowerneck -19.2957 -7.17004 -12.8483
upperneck 32.6089 -9.72311 10.2545
head 16.0725 -4.27968 4.72995
rclavicle 1.49089e-014 7.95139e-016
rhumerus -33.313 -7.92915 -80.0141
rradius 35.6156
rwrist 0.880743
rhand -17.9208 5.89788
rfingers 7.12502
rthumb 8.34678 -23.9172
lclavicle 1.49089e-014 7.95139e-016
lhumerus -37.2193 10.598 81.3201
lradius 21.1162
lwrist -15.1654
lhand -15.06 26.082
lfingers 7.12502
lthumb 11.1069 55.768
rfemur -12.8619 16.9226 14.1502
rtibia 34.6358
rfoot -13.4578 39.8048
rtoes 19.8133
lfemur -8.56304 -17.7562 -18.7506
ltibia 24.0311
lfoot -10.9065 -22.4986
ltoes -0.662044
2155
root 17.9866 17.755 -9.17438 358.477 12.0465 -1076.41
lowerback 10.9618 0.541018 -1.39364
upperback -0.0383579 0.608972 1.02004
thorax -6.22361 0.35902 1.75913
lowerneck -19.3893 -7.18998 -12.934
upperneck 32.5077 -9.71037 10.257
head 16.0489 -4.28489 4.74104
rclavicle -1.31695e-014 1.51076e-014
rhumerus -33.3641 -8.97891 -79.062
rradius 35.1253
rwrist 1.07957
rhand -18.2212 6.57822
rfingers 7.12502
rthumb 8.0569 -23.2482
lclavicle -1.31695e-014 1.51076e-014
lhumerus -36.6269 11.1934 80.9675
lradius 20.5475
lwrist -16.2584
lhand -15.2697 25.5749
lfingers 7.12502
lthumb 10.9046 55.2717
rfemur -13.0886 17.2468 13.7954
rtibia 34.569
rfoot -13.0442 39.5772
rtoes 20.339
lfemur -8.48731 -17.8541 -19.1878
ltibia 24.0068
lfoot -11.1195 -21.4371
ltoes -1.21274
2156
root 18.057 17.7648 -9.18395 358.564 11.2445 -1076.36
lowerback 10.9817 0.459629 -1.39786
upperback -0.0180546 0.501599 1.04845
thorax -6.20915 0.306604 1.80875
lowerneck -19.3858 -7.21512 -13.1357
upperneck 32.3197 -9.6915 10.3304
head 15.9726 -4.2948 4.80258
rclavicle 7.8023e-015 1.03368e-014
rhumerus -33.4494 -10.1367 -78.0312
rradius 34.7667
rwrist 1.20571
rhand -18.6752 7.47022
rfingers 7.12502
rthumb 7.61865 -22.3726
lclavicle 7.8023e-015 1.03368e-014
lhumerus -35.8741 11.4088 80.8632
lradius 19.9462
lwrist -17.0323
lhand -15.5498 25.6526
lfingers 7.12502
lthumb 10.6345 55.3635
rfemur -13.2368 17.5828 13.5195
rtibia 34.4611
rfoot -13.6417 38.9265
rtoes 18.5451
lfemur -8.32928 -17.9624 -19.5382
ltibia 23.849
lfoot -11.1675 -20.4868
ltoes -2.05775
2157
root 18.1431 17.7695 -9.16383 358.177 9.56818 -1076.38
lowerback 11.1252 0.653771 -1.20412
upperback 0.0874745 0.778444 0.977544
thorax -6.18632 0.434298 1.57913
lowerneck -19.1964 -7.23665 -13.1737
upperneck 32.2458 -9.77294 10.4231
head 15.9152 -4.32984 4.83174
rclavicle -1.02871e-014 -9.54166e-015
rhumerus -33.9094 -11.0111 -77.2688
rradius 34.5502
rwrist 0.433126
rhand -18.9719 6.77187
rfingers 7.12502
rthumb 7.33225 -23.0811
lclavicle -1.02871e-014 -9.54166e-015
lhumerus -35.5752 11.1488 80.6902
lradius 19.7059
lwrist -17.4316
lhand -15.6911 25.8351
lfingers 7.12502
lthumb 10.4981 55.5529
rfemur -12.9353 18.3656 13.4955
rtibia 34.3319
rfoot -13.5478 38.6927
rtoes 17.841
lfemur -7.36344 -17.4065 -20.0096
ltibia 23.6711
lfoot -11.8088 -19.1755
ltoes -4.53057
2158
root 18.2293 17.7865 -9.13411 358.018 7.75237 -1076.56
lowerback 10.8036 0.803154 -0.982795
upperback 0.177155 1.00506 0.947685
thorax -5.91444 0.536224 1.38921
lowerneck -19.0056 -7.21076 -12.9995
upperneck 32.1347 -9.84478 10.478
head 15.8194 -4.33989 4.80695
rclavicle 1.39149e-015 7.15625e-015
rhumerus -34.2762 -11.782 -76.6093
rradius 34.123
rwrist 0.127991
rhand -19.3559 6.47698
rfingers 7.12502
rthumb 6.96158 -23.3885
lclavicle 1.39149e-015 7.15625e-015
lhumerus -35.4828 11.2029 80.1756
lradius 19.7152
lwrist -18.359
lhand -14.3917 26.846
lfingers 7.12502
lthumb 11.7514 56.4963
rfemur -12.9467 19.0794 13.5611
rtibia 34.1918
rfoot -12.8921 38.4937
rtoes 18.442
lfemur -6.634 -16.8103 -20.2324
ltibia 23.4785
lfoot -12.5265 -17.7237
ltoes -7.18053
2159
root 18.2684 17.8112 -9.19725 358.35 8.39197 -1076.96
lowerback 11.0217 0.113739 -0.954798
upperback 0.100306 0.106839 1.20271
thorax -6.08889 0.0999248 1.78402
lowerneck -19.3427 -7.17357 -12.7447
upperneck 32.0395 -9.76041 10.2672
head 15.8031 -4.29296 4.67486
rclavicle 1.50579e-014 -1.27222e-014
rhumerus -34.1203 -12.311 -75.9472
rradius 33.6501
rwrist 0.136834
rhand -19.8686 6.97759
rfingers 7.12502
rthumb 6.4667 -22.9037
lclavicle 1.50579e-014 -1.27222e-014
lhumerus -35.0071 11.763 79.7803
lradius 20.1284
lwrist -19.5677
lhand -12.2153 29.1681
lfingers 7.12502
lthumb 13.8495 58.687
rfemur -13.3498 18.356 13.7353
rtibia 34.1161
rfoot -14.0149 36.8089
rtoes 15.7948
lfemur -7.32587 -17.0034 -19.7543
ltibia 23.3705
lfoot -12.0324 -18.3559
ltoes -6.4024
2160
root 18.3447 17.8197 -9.18572 358.297 6.93458 -1077.17
lowerback 10.6433 0.141405 -0.884192
upperback 0.350914 0.162047 1.36703
thorax -5.61435 0.121956 1.90506
lowerneck -19.8204 -7.15728 -12.5563
upperneck 32.1613 -9.64397 9.94281
head 15.917 -4.25272 4.51931
rclavicle 3.52843e-015 -4.77083e-015
rhumerus -34.0788 -12.6816 -75.2544
rradius 33.3776
rwrist -0.217185
rhand -20.0392 7.05468
rfingers 7.12502
rthumb 6.30202 -22.8316
lclavicle 3.52843e-015 -4.77083e-015
lhumerus -34.5472 11.5519 79.8696
lradius 20.5859
lwrist -19.638
lhand -11.4613 30.291
lfingers 7.12502
lthumb 14.5761 59.7588
rfemur -13.4325 18.8031 13.8038
rtibia 34.0654
rfoot -15.5697 35.8571
rtoes 12.4007
lfemur -6.96833 -15.8973 -19.8058
ltibia 23.3186
lfoot -12.388 -17.8184
ltoes -7.40413
